[[.........why be the same as everyone else when YOU can be UNiQUE.........]]

General
Complete name : End Of Watch 2012 CAM x264 AAC-UNiQUE.mp4
Format : MPEG-4
Format profile : Base Media
Codec ID : isom
File size : 1.41 GiB
Duration : 1h 41mn
Overall bit rate mode : Variable
Overall bit rate : 1 985 Kbps
Encoded date : UTC 2012-10-04 16:07:11

Video
ID : 1
Format : AVC
Format/Info : Advanced Video Codec
Format profile : High@L4.1
Format settings, CABAC : Yes
Format settings, ReFrames : 3 frames
Codec ID : avc1
Codec ID/Info : Advanced Video Coding
Duration : 1h 41mn
Bit rate mode : Variable
Bit rate : 1 886 Kbps
Maximum bit rate : 40.0 Mbps
Width : 678 pixels
Height : 352 pixels
Display aspect ratio : 1.926
Frame rate mode : Constant
Frame rate : 23.976 fps
Color space : YUV
Chroma subsampling : 4:2:0
Bit depth : 8 bits
Scan type : Progressive
Bits/(Pixel*Frame) : 0.330
Stream size : 1.34 GiB (95%)
Writing library : x264 core 128 r2216 198a7ea

Audio
ID : 2
Format : AAC
Format/Info : Advanced Audio Codec
Format profile : LC
Codec ID : 40
Duration : 1h 41mn
Bit rate mode : Variable
Bit rate : 96.0 Kbps
Maximum bit rate : 102 Kbps
Channel(s) : 2 channels
Channel positions : Front: L R
Sampling rate : 48.0 KHz
Compression mode : Lossy
Stream size : 69.4 MiB (5%)
Language : English
Encoded date : UTC 2012-10-04 16:07:49

Source : HP - Thanks!

Storyline
Two young officers are marked for death after confiscating a small cache of money and firearms from the members of a notorious cartel, during a routine traffic stop.

iMDB: http://www.imdb.com/title/tt1855199/

Notes:
1st off big thanks to HP for this, the source was nice, it just needed filtering, so i cropped, resized, dropped contrast, messed with gamma, yuv, hue, sat, brightness, levels and finally sharpened. Audio is very nice cam audio.

Enjoy another KICKASS UNiQUE RELEASE !!!!!!

Greets:
CM8, HP, LEGiON, 26K, mSD, HS, DQ1, ADTRG, CRYS, TnT, MR.FiXiT, iLLUMiNATi, INSPiRAL.


Poster:




Screenshots:








ENJOY!